HIERARCHY
ROOT Hips
{
	OFFSET 0.000000 0.000000 0.000000 
	CHANNELS 6 Xposition Yposition Zposition Zrotation Yrotation Xrotation
	JOINT LeftUpLeg
	{
		OFFSET 1.363060 -1.794630 0.839290 
		CHANNELS 3 Zrotation Yrotation Xrotation
		JOINT LeftLeg
		{
			OFFSET 2.448110 -6.726130 0.000000 
			CHANNELS 3 Zrotation Yrotation Xrotation
			JOINT LeftFoot
			{
				OFFSET 2.562200 -7.039590 0.000000 
				CHANNELS 3 Zrotation Yrotation Xrotation
				JOINT LeftToeBase
				{
					OFFSET 0.157640 -0.433110 2.322550 
					CHANNELS 3 Zrotation Yrotation Xrotation
					End Site
					{
						OFFSET 0.000000 0.000000 0.000000 
					}
				}
			}
		}
	}
	JOINT RightUpLeg
	{
		OFFSET -1.305520 -1.794630 0.839290 
		CHANNELS 3 Zrotation Yrotation Xrotation
		JOINT RightLeg
		{
			OFFSET -2.542530 -6.985550 0.000000 
			CHANNELS 3 Zrotation Yrotation Xrotation
			JOINT RightFoot
			{
				OFFSET -2.568260 -7.056230 0.000000 
				CHANNELS 3 Zrotation Yrotation Xrotation
				JOINT RightToeBase
				{
					OFFSET -0.164730 -0.452590 2.363150 
					CHANNELS 3 Zrotation Yrotation Xrotation
					End Site
					{
						OFFSET 0.000000 0.000000 0.000000 
					}
				}
			}
		}
	}
	JOINT Spine
	{
		OFFSET 0.028270 2.035590 -0.193380 
		CHANNELS 3 Zrotation Yrotation Xrotation
		JOINT Spine1
		{
			OFFSET 0.056720 2.048850 -0.042750 
			CHANNELS 3 Zrotation Yrotation Xrotation
			JOINT Neck1
			{
				OFFSET -0.054170 1.746240 0.172020 
				CHANNELS 3 Zrotation Yrotation Xrotation
				JOINT Head
				{
					OFFSET 0.104070 1.761360 -0.123970 
					CHANNELS 3 Zrotation Yrotation Xrotation
					End Site
					{
						OFFSET 0.000000 0.000000 0.000000 
					}
				}
			}
			JOINT LeftArm
			{
				OFFSET 3.362410 1.200890 -0.311210 
				CHANNELS 3 Zrotation Yrotation Xrotation
				JOINT LeftForeArm
				{
					OFFSET 4.983000 -0.000000 -0.000000 
					CHANNELS 3 Zrotation Yrotation Xrotation
					JOINT LeftHand
					{
						OFFSET 3.483560 -0.000000 -0.000000 
						CHANNELS 3 Zrotation Yrotation Xrotation
						JOINT LeftHandIndex1
						{
							OFFSET 0.715260 -0.000000 -0.000000 
							CHANNELS 3 Zrotation Yrotation Xrotation
							End Site
							{
								OFFSET 0.000000 0.000000 0.000000 
							}
						}
					}
				}
			}
			JOINT RightArm
			{
				OFFSET -3.136600 1.374050 -0.404650 
				CHANNELS 3 Zrotation Yrotation Xrotation
				JOINT RightForeArm
				{
					OFFSET -5.241900 -0.000000 -0.000000 
					CHANNELS 3 Zrotation Yrotation Xrotation
					JOINT RightHand
					{
						OFFSET -3.444170 -0.000000 -0.000000 
						CHANNELS 3 Zrotation Yrotation Xrotation
						JOINT RightHandIndex1
						{
							OFFSET -0.622530 -0.000000 -0.000000 
							CHANNELS 3 Zrotation Yrotation Xrotation
							End Site
							{
								OFFSET 0.000000 0.000000 0.000000 
							}
						}
					}
				}
			}
		}
	}
}
MOTION
Frames: 9
Frame Time: 0.041667
0.422500 17.027546 -10.239982 -1.556787 -6.637009 11.187881 -29.014531 -14.118953 -9.663595 -0.883236 8.542212 21.363159 -0.539106 12.658464 -18.853747 0.087900 1.912400 5.263600 30.040393 16.168069 -10.968120 0.780370 -9.199274 23.751549 0.781168 -13.503268 -18.914389 -0.157800 2.559400 -7.054500 1.164885 -1.099900 -5.143825 -2.425956 -0.706187 -0.999862 5.349879 -1.797013 18.287841 -2.566000 0.951300 17.104400 -99.755401 7.486421 15.739789 24.185174 -33.733237 -4.770404 0.030443 4.210899 21.203339 -7.125000 0.000000 0.000000 93.089855 -0.589567 25.614850 -20.836373 31.246617 -3.591909 -0.991861 -3.178300 9.503216 7.125000 0.000000 0.000000 
0.431687 17.026141 -10.235226 -1.540506 -6.665510 11.237016 -29.058395 -14.045026 -9.742769 -0.881910 8.557968 21.389989 -0.527482 12.590746 -18.863560 0.089600 1.930100 5.312500 29.946134 16.084877 -11.016777 0.775627 -9.197824 23.756213 0.712852 -13.276252 -19.238828 -0.192700 2.827200 -7.798000 1.161572 -1.108062 -5.130250 -2.443580 -0.712077 -0.911706 5.349832 -1.853259 18.270928 -2.569100 0.927800 17.110700 -99.720925 7.409359 15.787271 24.213879 -33.758934 -4.778287 0.022817 4.207337 21.167585 -7.125000 0.000000 0.000000 93.068674 -0.470234 25.595368 -20.886507 31.300894 -3.604566 -0.989634 -3.164177 9.413496 7.125000 0.000000 0.000000 
0.447143 17.025601 -10.229390 -1.484237 -6.707985 11.265382 -29.166490 -14.048408 -9.817190 -0.876743 8.590794 21.457984 -0.508938 12.527021 -18.952088 0.099900 2.038000 5.610800 29.754464 15.717504 -11.136600 0.766072 -9.183282 23.755590 0.614254 -12.796544 -19.431585 -0.242600 3.169900 -8.752100 1.163528 -1.143728 -5.165908 -2.447744 -0.726045 -1.155729 5.354210 -1.833704 18.263455 -2.565300 0.936100 17.006000 -99.786341 7.737609 15.855242 24.421880 -33.941554 -4.846302 0.001050 4.226462 21.040640 -7.125000 0.000000 0.000000 93.050699 -0.806834 25.701981 -21.192484 31.537890 -3.678628 -0.979048 -3.161813 9.335414 7.125000 0.000000 0.000000 
0.452872 17.023655 -10.225715 -1.534988 -6.773180 11.338722 -29.116465 -14.010187 -9.922623 -0.868053 8.622033 21.527941 -0.501997 12.508386 -19.007605 0.104500 2.084200 5.738400 29.766052 15.904321 -11.120496 0.771420 -9.181873 23.728461 0.568990 -12.803553 -19.907198 -0.291900 3.474600 -9.603000 1.163784 -1.106019 -5.136171 -2.392014 -0.709625 -0.965855 5.363111 -1.916647 18.244562 -2.549300 0.892700 17.086900 -99.744936 7.435717 15.905481 24.278262 -33.816511 -4.793196 0.006222 4.204860 21.156567 -7.125000 0.000000 0.000000 92.956976 -0.528765 25.713308 -21.148396 31.502478 -3.674366 -0.999249 -3.153197 9.096026 7.125000 0.000000 0.000000 
0.463140 17.022034 -10.220851 -1.544168 -6.827522 11.390528 -29.130975 -13.977442 -10.019411 -0.859360 8.657508 21.607427 -0.488715 12.460917 -19.076384 0.110000 2.138400 5.888300 29.695824 15.847136 -11.156063 0.770199 -9.173872 23.712355 0.500062 -12.607440 -20.268678 -0.347100 3.785400 -10.473800 1.164426 -1.101282 -5.130297 -2.373585 -0.707544 -0.938127 5.368431 -1.953007 18.224914 -2.541300 0.872600 17.082600 -99.743068 7.390073 15.965578 24.289503 -33.828541 -4.794446 0.002446 4.200688 21.157353 -7.125000 0.000000 0.000000 92.902767 -0.487981 25.730810 -21.233746 31.570476 -3.698412 -1.004796 -3.145442 8.949827 7.125000 0.000000 0.000000 
0.473840 17.019981 -10.215771 -1.559600 -6.887386 11.438748 -29.139700 -13.944524 -10.125110 -0.846753 8.702734 21.714589 -0.473170 12.408040 -19.162355 0.115000 2.186600 6.021700 29.632851 15.786593 -11.181031 0.769830 -9.162126 23.688484 0.431072 -12.418697 -20.634934 -0.406500 4.093200 -11.339000 1.165428 -1.093884 -5.124042 -2.357176 -0.704067 -0.912766 5.371103 -1.986807 18.200851 -2.537100 0.853700 17.073100 -99.740962 7.346074 16.032518 24.303765 -33.843862 -4.797136 0.001025 4.196222 21.155012 -7.125000 0.000000 0.000000 92.850867 -0.448485 25.727183 -21.313241 31.631982 -3.721071 -1.012195 -3.135153 8.821204 7.125000 0.000000 0.000000 
0.484865 17.017603 -10.210367 -1.580628 -6.953366 11.479541 -29.146758 -13.898384 -10.219378 -0.834034 8.744902 21.817227 -0.457312 12.353214 -19.247340 0.119000 2.223700 6.124300 29.576630 15.722980 -11.200814 0.767650 -9.153410 23.675219 0.360578 -12.233336 -21.012165 -0.468200 4.388800 -12.173200 1.166727 -1.083857 -5.116090 -2.342006 -0.699424 -0.882658 5.372144 -2.017960 18.172415 -2.536000 0.836100 17.060200 -99.739489 7.298267 16.102191 24.321593 -33.863734 -4.801423 0.000834 4.191911 21.148282 -7.125000 0.000000 0.000000 92.799026 -0.403437 25.700088 -21.384140 31.685164 -3.741331 -1.019770 -3.123327 8.706462 7.125000 0.000000 0.000000 
0.496970 17.014684 -10.204314 -1.598770 -7.025790 11.509043 -29.163386 -13.840782 -10.304090 -0.820358 8.787696 21.925343 -0.439824 12.290538 -19.337730 0.121900 2.250900 6.199600 29.513085 15.622719 -11.222047 0.762903 -9.146317 23.672787 0.286213 -12.021142 -21.374991 -0.531300 4.670800 -12.971900 1.168175 -1.074375 -5.109832 -2.331288 -0.694601 -0.870049 5.371655 -2.042268 18.140368 -2.538800 0.822400 17.036900 -99.741228 7.278021 16.183088 24.360357 -33.903231 -4.813318 -0.000026 4.190230 21.119801 -7.125000 0.000000 0.000000 92.751933 -0.383245 25.649249 -21.463972 31.741790 -3.761988 -1.025856 -3.105910 8.617694 7.125000 0.000000 0.000000 
0.509616 17.011442 -10.198046 -1.615075 -7.106154 11.535380 -29.185446 -13.778663 -10.383832 -0.806533 8.829825 22.032888 -0.421284 12.224858 -19.432855 0.124300 2.272700 6.260000 29.443626 15.510573 -11.254038 0.755655 -9.144995 23.686459 0.210214 -11.798691 -21.730015 -0.595600 4.940600 -13.739100 1.169172 -1.061820 -5.102693 -2.322226 -0.688254 -0.855210 5.371639 -2.067655 18.105535 -2.543500 0.809200 17.011700 -99.736059 7.258235 16.282365 24.407197 -33.950285 -4.828234 -0.003507 4.190616 21.074816 -7.125000 0.000000 0.000000 92.704936 -0.363796 25.581946 -21.545811 31.798536 -3.782612 -1.030746 -3.086211 8.523042 7.125000 0.000000 0.000000 
